<svg
  width="16"
  height="16"
  viewBox="0 0 16 16"
  fill="none"
  xmlns="http://www.w3.org/2000/svg"
>
<path
    d="M7.33301 7.33334V4.66667H8.66634V7.33334H11.333V8.66667H8.66634V11.3333H7.33301V8.66667H4.66634V7.33334H7.33301ZM7.99967 14.6667C4.31767 14.6667 1.33301 11.682 1.33301 8C1.33301 4.318 4.31767 1.33334 7.99967 1.33334C11.6817 1.33334 14.6663 4.318 14.6663 8C14.6663 11.682 11.6817 14.6667 7.99967 14.6667ZM7.99967 13.3333C9.41416 13.3333 10.7707 12.7714 11.7709 11.7712C12.7711 10.771 13.333 9.41449 13.333 8C13.333 6.58551 12.7711 5.22896 11.7709 4.22877C10.7707 3.22857 9.41416 2.66667 7.99967 2.66667C6.58519 2.66667 5.22863 3.22857 4.22844 4.22877C3.22824 5.22896 2.66634 6.58551 2.66634 8C2.66634 9.41449 3.22824 10.771 4.22844 11.7712C5.22863 12.7714 6.58519 13.3333 7.99967 13.3333Z"
    fill="#FCFCFC"
  />
</svg>
