<svg
  width="16"
  height="17"
  viewBox="0 0 16 17"
  fill="none"
  xmlns="http://www.w3.org/2000/svg"
>
<path
    d="M9.33341 9.5V5.83334C9.33341 5.12609 9.05246 4.44781 8.55237 3.94772C8.05227 3.44762 7.37399 3.16667 6.66675 3.16667C5.9595 3.16667 5.28123 3.44762 4.78113 3.94772C4.28103 4.44781 4.00008 5.12609 4.00008 5.83334V9.5C4.00008 10.6493 4.45663 11.7515 5.26928 12.5641C6.08194 13.3768 7.18414 13.8333 8.33341 13.8333C9.48269 13.8333 10.5849 13.3768 11.3975 12.5641C12.2102 11.7515 12.6667 10.6493 12.6667 9.5V3.16667H14.0001V9.5C14.0001 11.0029 13.4031 12.4442 12.3404 13.5069C11.2776 14.5696 9.83631 15.1667 8.33341 15.1667C6.83052 15.1667 5.38918 14.5696 4.32648 13.5069C3.26377 12.4442 2.66675 11.0029 2.66675 9.5V5.83334C2.66675 4.77247 3.08818 3.75505 3.83832 3.00491C4.58847 2.25476 5.60588 1.83334 6.66675 1.83334C7.72761 1.83334 8.74503 2.25476 9.49517 3.00491C10.2453 3.75505 10.6667 4.77247 10.6667 5.83334V9.5C10.6667 10.1188 10.4209 10.7123 9.98333 11.1499C9.54574 11.5875 8.95225 11.8333 8.33341 11.8333C7.71458 11.8333 7.12108 11.5875 6.6835 11.1499C6.24591 10.7123 6.00008 10.1188 6.00008 9.5V5.83334H7.33341V9.5C7.33341 9.76522 7.43877 10.0196 7.62631 10.2071C7.81384 10.3946 8.0682 10.5 8.33341 10.5C8.59863 10.5 8.85298 10.3946 9.04052 10.2071C9.22806 10.0196 9.33341 9.76522 9.33341 9.5Z"
    fill="#0A459F"
  />
</svg>
