<svg width="23" height="22" viewBox="0 0 23 22" fill="none" xmlns="http://www.w3.org/2000/svg">
<path d="M15.7124 1.10184C15.5046 0.871403 15.2521 0.685654 14.9702 0.555899C14.6883 0.426144 14.383 0.355096 14.0728 0.347077C13.7626 0.339059 13.454 0.394239 13.1658 0.509258C12.8776 0.624278 12.6158 0.796733 12.3963 1.01613L1.62044 11.792C1.40264 12.0098 1.23105 12.2692 1.11596 12.5549C1.00086 12.8405 0.944627 13.1465 0.95063 13.4544C0.956633 13.7623 1.02475 14.0658 1.15089 14.3467C1.27703 14.6277 1.45861 14.8803 1.68472 15.0893L2.9124 16.2251C3.5499 16.8143 4.42312 16.6831 4.95705 16.4661C5.21906 16.3597 5.50598 16.3301 5.78421 16.3808C6.06244 16.4315 6.32047 16.5604 6.52808 16.7525C6.73568 16.9445 6.88427 17.1917 6.95645 17.4652C7.02863 17.7386 7.0214 18.027 6.93562 18.2965C6.76151 18.8456 6.69812 19.726 7.33562 20.3161L8.24633 21.1581C8.67778 21.5572 9.24627 21.7749 9.83393 21.7661C10.4216 21.7573 10.9833 21.5226 11.4026 21.1108L21.6954 11.0018C22.1166 10.5884 22.3616 10.0283 22.3794 9.43846C22.3972 8.84861 22.1864 8.27471 21.791 7.83667L20.8312 6.77327C20.2642 6.1447 19.4097 6.17952 18.866 6.3322C18.5991 6.40684 18.3166 6.40551 18.0504 6.32837C17.7842 6.25122 17.5448 6.10132 17.3591 5.89553C17.1735 5.68974 17.0489 5.43623 16.9995 5.16351C16.9501 4.8908 16.9777 4.6097 17.0794 4.35184C17.2865 3.82684 17.4088 2.98042 16.8419 2.35184L15.7124 1.10184Z" fill="white"/>
</svg>
