<svg
  width="25"
  height="22"
  viewBox="0 0 25 22"
  fill="none"
  xmlns="http://www.w3.org/2000/svg"
>
<path
    d="M0.500002 7.19281C0.499369 6.24745 0.685223 5.31126 1.04692 4.43783C1.40862 3.56441 1.93906 2.77091 2.60786 2.10277C3.27666 1.43464 4.07069 0.904998 4.94448 0.544173C5.81827 0.183349 6.75465 -0.00156842 7.7 1.00203e-05H17.3C21.2756 1.00203e-05 24.5 3.23401 24.5 7.19281V21.6H7.7C3.7244 21.6 0.500002 18.366 0.500002 14.4072V7.19281ZM22.1 19.2V7.19281C22.0968 5.92141 21.5899 4.7031 20.6902 3.80475C19.7905 2.90641 18.5714 2.40128 17.3 2.40001H7.7C7.06982 2.39843 6.44552 2.52127 5.86292 2.76148C5.28031 3.00169 4.75086 3.35455 4.30491 3.79983C3.85897 4.2451 3.50532 4.77403 3.26423 5.35627C3.02314 5.93852 2.89937 6.56263 2.9 7.19281V14.4072C2.90318 15.6786 3.41014 16.8969 4.30983 17.7953C5.20952 18.6936 6.4286 19.1987 7.7 19.2H22.1ZM14.9 9.60001H17.3V12H14.9V9.60001ZM7.7 9.60001H10.1V12H7.7V9.60001Z"
    fill="white"
  />
</svg>
