<svg width="24" height="22" viewBox="0 0 24 22" fill="none" xmlns="http://www.w3.org/2000/svg">
<path d="M4.00006 12.256V11H2.00006V9H8.36506L11.2001 7H14.6911L13.6001 4H11.0001V2H15.0001L16.0921 5H20.0001V8H17.1841L18.6401 12.002C19.7448 12.0371 20.798 12.4776 21.5988 13.2395C22.3996 14.0014 22.892 15.0313 22.9821 16.133C23.0722 17.2346 22.7537 18.3309 22.0873 19.2127C21.4209 20.0946 20.4533 20.7003 19.3689 20.9145C18.2845 21.1286 17.1593 20.9362 16.2077 20.3738C15.2561 19.8115 14.5448 18.9186 14.2093 17.8654C13.8739 16.8122 13.9378 15.6724 14.3888 14.6633C14.8399 13.6542 15.6466 12.8464 16.6551 12.394L15.4191 9H14.4721L12.8901 14.87L12.8881 14.869L12.8901 14.875L9.96507 15.939C10.0706 16.7812 9.93583 17.6362 9.57623 18.4051C9.21663 19.174 8.64689 19.8255 7.93279 20.2844C7.2187 20.7433 6.38937 20.9908 5.54058 20.9985C4.69178 21.0061 3.85813 20.7736 3.13587 20.3276C2.41362 19.8817 1.83222 19.2405 1.45881 18.4783C1.0854 17.716 0.93521 16.8636 1.02557 16.0196C1.11594 15.1756 1.44318 14.3744 1.9695 13.7084C2.49583 13.0424 3.19977 12.5389 4.00006 12.256ZM6.00006 12.027C6.66351 12.1013 7.30212 12.3222 7.8696 12.6739C8.43708 13.0255 8.91922 13.499 9.28106 14.06L11.2381 13.347L12.4031 9H11.8561L9.00006 11H6.00006V12.027ZM5.50006 19C6.16311 19 6.79899 18.7366 7.26783 18.2678C7.73667 17.7989 8.00006 17.163 8.00006 16.5C8.00006 15.837 7.73667 15.2011 7.26783 14.7322C6.79899 14.2634 6.16311 14 5.50006 14C4.83702 14 4.20114 14.2634 3.7323 14.7322C3.26346 15.2011 3.00006 15.837 3.00006 16.5C3.00006 17.163 3.26346 17.7989 3.7323 18.2678C4.20114 18.7366 4.83702 19 5.50006 19ZM18.5001 19C19.1631 19 19.799 18.7366 20.2678 18.2678C20.7367 17.7989 21.0001 17.163 21.0001 16.5C21.0001 15.837 20.7367 15.2011 20.2678 14.7322C19.799 14.2634 19.1631 14 18.5001 14C17.837 14 17.2011 14.2634 16.7323 14.7322C16.2635 15.2011 16.0001 15.837 16.0001 16.5C16.0001 17.163 16.2635 17.7989 16.7323 18.2678C17.2011 18.7366 17.837 19 18.5001 19Z" fill="white"/>
</svg>
