<svg width="25" height="22" viewBox="0 0 25 22" fill="none" xmlns="http://www.w3.org/2000/svg">
<g clip-path="url(#clip0)">
<path d="M20.5 22H6.5C5.70435 22 4.94129 21.6839 4.37868 21.1213C3.81607 20.5587 3.5 19.7956 3.5 19V5C3.5 4.20435 3.81607 3.44129 4.37868 2.87868C4.94129 2.31607 5.70435 2 6.5 2H20.5C20.7652 2 21.0196 2.10536 21.2071 2.29289C21.3946 2.48043 21.5 2.73478 21.5 3V21C21.5 21.2652 21.3946 21.5196 21.2071 21.7071C21.0196 21.8946 20.7652 22 20.5 22ZM19.5 20V18H6.5C6.23478 18 5.98043 18.1054 5.79289 18.2929C5.60536 18.4804 5.5 18.7348 5.5 19C5.5 19.2652 5.60536 19.5196 5.79289 19.7071C5.98043 19.8946 6.23478 20 6.5 20H19.5ZM5.5 16.17C5.813 16.06 6.15 16 6.5 16H19.5V4H6.5C6.23478 4 5.98043 4.10536 5.79289 4.29289C5.60536 4.48043 5.5 4.73478 5.5 5V16.17ZM12.5 10C11.9696 10 11.4609 9.78929 11.0858 9.41421C10.7107 9.03914 10.5 8.53043 10.5 8C10.5 7.46957 10.7107 6.96086 11.0858 6.58579C11.4609 6.21071 11.9696 6 12.5 6C13.0304 6 13.5391 6.21071 13.9142 6.58579C14.2893 6.96086 14.5 7.46957 14.5 8C14.5 8.53043 14.2893 9.03914 13.9142 9.41421C13.5391 9.78929 13.0304 10 12.5 10ZM9.5 14C9.5 13.2044 9.81607 12.4413 10.3787 11.8787C10.9413 11.3161 11.7044 11 12.5 11C13.2956 11 14.0587 11.3161 14.6213 11.8787C15.1839 12.4413 15.5 13.2044 15.5 14H9.5Z" fill="white"/>
</g>
<defs>
<clipPath id="clip0">
<rect width="24" height="21.6" fill="white" transform="translate(0.5)"/>
</clipPath>
</defs>
</svg>
