<svg
  width="24"
  height="22"
  viewBox="0 0 24 22"
  fill="none"
  xmlns="http://www.w3.org/2000/svg"
>
<path
    d="M12.4968 2.4H22.8C23.1183 2.4 23.4235 2.52643 23.6485 2.75147C23.8736 2.97652 24 3.28174 24 3.6V20.4C24 20.7183 23.8736 21.0235 23.6485 21.2485C23.4235 21.4736 23.1183 21.6 22.8 21.6H1.2C0.88174 21.6 0.576515 21.4736 0.351472 21.2485C0.126428 21.0235 0 20.7183 0 20.4V1.2C0 0.88174 0.126428 0.576515 0.351472 0.351472C0.576515 0.126428 0.88174 0 1.2 0H10.0968L12.4968 2.4ZM2.4 4.8V19.2H21.6V4.8H2.4Z"
    fill="white"
  />
</svg>
