<svg
  width="24"
  height="29"
  viewBox="0 0 24 29"
  fill="none"
  xmlns="http://www.w3.org/2000/svg"
>
<path
    d="M11.2929 20.6208C10.9024 21.0724 10.9024 21.8045 11.2929 22.2561C11.6834 22.7076 12.3166 22.7076 12.7071 22.2561L18.7071 15.3182C19.0857 14.8805 19.0989 14.1756 18.7372 13.7193L13.2372 6.78146C12.864 6.31071 12.2314 6.27891 11.8243 6.71043C11.4172 7.14195 11.3897 7.87339 11.7628 8.34414L16.6159 14.4658L11.2929 20.6208Z"
    fill="#0A459F"
  />
<path
    opacity="0.3"
    d="M4.29289 20.6208C3.90237 21.0724 3.90237 21.8045 4.29289 22.2561C4.68342 22.7076 5.31658 22.7076 5.70711 22.2561L11.7071 15.3182C12.0857 14.8805 12.0989 14.1756 11.7372 13.7193L6.23716 6.78146C5.86396 6.31071 5.2314 6.27891 4.82428 6.71043C4.41716 7.14195 4.38966 7.87339 4.76285 8.34414L9.61586 14.4658L4.29289 20.6208Z"
    fill="#0A459F"
  />
</svg>
