<svg
  width="24"
  height="29"
  viewBox="0 0 24 29"
  fill="none"
  xmlns="http://www.w3.org/2000/svg"
>
<path
    d="M12.7071 8.38018C13.0976 7.92862 13.0976 7.19649 12.7071 6.74492C12.3166 6.29336 11.6834 6.29336 11.2929 6.74492L5.29289 13.6827C4.91432 14.1205 4.90107 14.8254 5.26285 15.2817L10.7628 22.2195C11.136 22.6903 11.7686 22.7221 12.1757 22.2905C12.5828 21.859 12.6103 21.1276 12.2372 20.6568L7.38414 14.5351L12.7071 8.38018Z"
    fill="#0A459F"
  />
<path
    opacity="0.3"
    d="M19.7071 8.38018C20.0976 7.92862 20.0976 7.19649 19.7071 6.74492C19.3166 6.29336 18.6834 6.29336 18.2929 6.74492L12.2929 13.6827C11.9143 14.1205 11.9011 14.8254 12.2628 15.2817L17.7628 22.2195C18.136 22.6903 18.7686 22.7221 19.1757 22.2905C19.5828 21.859 19.6103 21.1276 19.2372 20.6568L14.3841 14.5351L19.7071 8.38018Z"
    fill="#0A459F"
  />
</svg>
