<svg width="27" height="22" viewBox="0 0 27 22" fill="none" xmlns="http://www.w3.org/2000/svg">
<path d="M0 17.9882H8.89412V20.5294H0V17.9882ZM0 9.09412H11.4353V11.6353H0V9.09412ZM0 0.199997H25.4118V2.74117H0V0.199997ZM23.727 11.6671L25.1958 11.1703L26.4664 13.3709L25.3025 14.3937C25.449 15.0883 25.449 15.8058 25.3025 16.5004L26.4664 17.5232L25.1958 19.7239L23.727 19.2271C23.206 19.6972 22.586 20.0593 21.9037 20.2816L21.6 21.8H19.0588L18.7539 20.2804C18.0795 20.06 17.4589 19.7008 16.9319 19.2258L15.4631 19.7239L14.1925 17.5232L15.3563 16.5004C15.2098 15.8058 15.2098 15.0883 15.3563 14.3937L14.1925 13.3709L15.4631 11.1703L16.9319 11.6671C17.4528 11.1969 18.0728 10.8348 18.7552 10.6125L19.0588 9.09412H21.6L21.9049 10.6137C22.586 10.8348 23.206 11.1982 23.727 11.6683V11.6671ZM20.3294 17.9882C21.0034 17.9882 21.6497 17.7205 22.1263 17.2439C22.6029 16.7674 22.8706 16.121 22.8706 15.4471C22.8706 14.7731 22.6029 14.1267 22.1263 13.6502C21.6497 13.1736 21.0034 12.9059 20.3294 12.9059C19.6554 12.9059 19.0091 13.1736 18.5325 13.6502C18.056 14.1267 17.7882 14.7731 17.7882 15.4471C17.7882 16.121 18.056 16.7674 18.5325 17.2439C19.0091 17.7205 19.6554 17.9882 20.3294 17.9882Z" fill="#404040"/>
</svg>
