<svg
  width="171"
  height="21"
  viewBox="0 0 171 21"
  fill="none"
  xmlns="http://www.w3.org/2000/svg"
>
<path
    d="M8.20984 7.9V9.76H12.7498C12.4698 12.32 10.8098 13.98 8.40984 13.98C5.62984 13.98 3.76984 11.7 3.76984 8.3C3.76984 4.9 5.62984 2.62 8.40984 2.62C10.6898 2.62 12.4098 3.98 12.7298 6H15.3898C14.9898 2.64 12.2098 0.399999 8.40984 0.399999C3.90984 0.399999 0.909844 3.56 0.909844 8.3C0.909844 13.04 3.90984 16.2 8.40984 16.2C12.6698 16.2 15.5098 13.16 15.5098 8.6V7.9H8.20984ZM22.5589 16.2C25.8189 16.2 27.9989 14.04 27.9989 10.78C27.9989 7.52 25.8189 5.36 22.5589 5.36C19.2989 5.36 17.1389 7.52 17.1389 10.78C17.1389 14.04 19.2989 16.2 22.5589 16.2ZM22.5589 14.1C20.9189 14.1 19.8389 12.76 19.8389 10.78C19.8389 8.78 20.9189 7.44 22.5589 7.44C24.1989 7.44 25.2989 8.78 25.2989 10.78C25.2989 12.76 24.1989 14.1 22.5589 14.1ZM34.9417 16.2C38.2017 16.2 40.3817 14.04 40.3817 10.78C40.3817 7.52 38.2017 5.36 34.9417 5.36C31.6817 5.36 29.5217 7.52 29.5217 10.78C29.5217 14.04 31.6817 16.2 34.9417 16.2ZM34.9417 14.1C33.3017 14.1 32.2217 12.76 32.2217 10.78C32.2217 8.78 33.3017 7.44 34.9417 7.44C36.5817 7.44 37.6817 8.78 37.6817 10.78C37.6817 12.76 36.5817 14.1 34.9417 14.1ZM50.1045 5.56V7.42H50.0645C49.4645 6.14 48.0045 5.36 46.3845 5.36C43.7245 5.36 41.9245 7.52 41.9245 10.78C41.9245 14.04 43.7045 16.2 46.3645 16.2C48.0045 16.2 49.4845 15.42 50.0645 14.14H50.1045V16.2C50.1045 17.7 49.0245 18.7 47.4045 18.7C46.0045 18.7 45.0245 17.92 44.8845 16.76H42.3645C42.5645 19.18 44.5845 20.8 47.4045 20.8C50.6045 20.8 52.7445 18.9 52.7445 16.06V5.56H50.1045ZM47.3645 14.1C45.7245 14.1 44.6245 12.76 44.6245 10.78C44.6245 8.78 45.7245 7.44 47.3645 7.44C49.0045 7.44 50.1045 8.78 50.1045 10.78C50.1045 12.76 49.0045 14.1 47.3645 14.1ZM55.5923 16H58.2323V0.599999H55.5923V16ZM71.0997 10.88C71.0997 7.56 68.9797 5.36 65.7997 5.36C62.5797 5.36 60.4397 7.52 60.4397 10.78C60.4397 14.02 62.5797 16.2 65.7997 16.2C68.4997 16.2 70.5997 14.68 71.0597 12.38H68.4997C68.1997 13.54 67.0997 14.3 65.7997 14.3C64.2397 14.3 63.1597 13.1 63.0197 11.24H71.0997V10.88ZM65.7997 7.18C67.1997 7.18 68.2197 8.24 68.4797 9.9H63.0597C63.3397 8.24 64.3597 7.18 65.7997 7.18ZM84.9333 16.2C88.7733 16.2 91.5933 13.88 91.9933 10.4H89.2933C88.9933 12.54 87.2533 13.98 84.9333 13.98C82.1533 13.98 80.2933 11.7 80.2933 8.3C80.2933 4.9 82.1533 2.62 84.9333 2.62C87.2533 2.62 88.9933 4.04 89.2933 6.16H91.9933C91.5933 2.7 88.7933 0.399999 84.9333 0.399999C80.4333 0.399999 77.4333 3.56 77.4333 8.3C77.4333 13.04 80.4333 16.2 84.9333 16.2ZM101.608 5.56V7.42H101.568C100.968 6.14 99.5084 5.36 97.8884 5.36C95.2284 5.36 93.4284 7.52 93.4284 10.78C93.4284 14.04 95.2084 16.2 97.8684 16.2C99.5084 16.2 100.988 15.42 101.568 14.14H101.608V16H104.248V5.56H101.608ZM98.8684 14.1C97.2284 14.1 96.1284 12.76 96.1284 10.78C96.1284 8.78 97.2284 7.44 98.8684 7.44C100.508 7.44 101.608 8.78 101.608 10.78C101.608 12.76 100.508 14.1 98.8684 14.1ZM107.096 16H109.736V0.599999H107.096V16ZM122.604 10.88C122.604 7.56 120.484 5.36 117.304 5.36C114.084 5.36 111.944 7.52 111.944 10.78C111.944 14.02 114.084 16.2 117.304 16.2C120.004 16.2 122.104 14.68 122.564 12.38H120.004C119.704 13.54 118.604 14.3 117.304 14.3C115.744 14.3 114.664 13.1 114.524 11.24H122.604V10.88ZM117.304 7.18C118.704 7.18 119.724 8.24 119.984 9.9H114.564C114.844 8.24 115.864 7.18 117.304 7.18ZM131.091 5.36C129.531 5.36 128.091 6.14 127.471 7.34H127.431V5.56H124.791V16H127.431V10.24C127.431 8.56 128.411 7.46 129.851 7.46C131.151 7.46 132.011 8.38 132.011 9.74V16H134.651V9.34C134.651 6.94 133.231 5.36 131.091 5.36ZM144.89 0.599999V7.42H144.85C144.25 6.14 142.79 5.36 141.17 5.36C138.51 5.36 136.71 7.52 136.71 10.78C136.71 14.04 138.49 16.2 141.15 16.2C142.79 16.2 144.27 15.42 144.85 14.14H144.89V16H147.53V0.599999H144.89ZM142.15 14.1C140.51 14.1 139.41 12.76 139.41 10.78C139.41 8.78 140.51 7.44 142.15 7.44C143.79 7.44 144.89 8.78 144.89 10.78C144.89 12.76 143.79 14.1 142.15 14.1ZM157.898 5.56V7.42H157.858C157.258 6.14 155.798 5.36 154.178 5.36C151.518 5.36 149.718 7.52 149.718 10.78C149.718 14.04 151.498 16.2 154.158 16.2C155.798 16.2 157.278 15.42 157.858 14.14H157.898V16H160.538V5.56H157.898ZM155.158 14.1C153.518 14.1 152.418 12.76 152.418 10.78C152.418 8.78 153.518 7.44 155.158 7.44C156.798 7.44 157.898 8.78 157.898 10.78C157.898 12.76 156.798 14.1 155.158 14.1ZM169.345 5.36C167.885 5.36 166.565 6.3 166.025 7.72H165.985V5.56H163.345V16H165.985V11.12C165.985 9.06 167.125 7.7 168.825 7.7C169.465 7.7 170.185 7.82 170.645 8V5.56C170.305 5.44 169.785 5.36 169.345 5.36Z"
    fill="#404040"
  />
</svg>
