<svg
  width="32"
  height="26"
  viewBox="0 0 32 26"
  fill="none"
  xmlns="http://www.w3.org/2000/svg"
>
<rect width="32" height="6" rx="1.5" fill="#0A459F" />
<path
    fill-rule="evenodd"
    clip-rule="evenodd"
    d="M1.5 10C0.671573 10 0 10.6716 0 11.5V14.5C0 15.3284 0.671573 16 1.5 16H30.5C31.3284 16 32 15.3284 32 14.5V11.5C32 10.6716 31.3284 10 30.5 10H1.5ZM1.5 20C0.671573 20 0 20.6716 0 21.5V24.5C0 25.3284 0.671573 26 1.5 26H30.5C31.3284 26 32 25.3284 32 24.5V21.5C32 20.6716 31.3284 20 30.5 20H1.5Z"
    fill="#0A459F"
  />
</svg>
