<svg width="75" height="149" viewBox="0 0 75 149" fill="none" xmlns="http://www.w3.org/2000/svg">
<path fill-rule="evenodd" clip-rule="evenodd" d="M10.8801 0H63.7884C69.4808 0 74.0953 4.61452 74.0953 10.3068V138.627C74.0953 144.319 69.4808 148.934 63.7884 148.934H10.8801C5.18777 148.934 0.573242 144.319 0.573242 138.627V10.3068C0.573242 4.61452 5.18777 0 10.8801 0Z" fill="#DEDEDE"/>
<path fill-rule="evenodd" clip-rule="evenodd" d="M11.0504 0.858887H63.6152C68.928 0.858887 73.2349 5.16578 73.2349 10.4786V138.455C73.2349 143.768 68.928 148.075 63.6152 148.075H11.0504C5.73755 148.075 1.43066 143.768 1.43066 138.455V10.4786C1.43066 5.16578 5.73755 0.858887 11.0504 0.858887Z" fill="white"/>
<rect x="72.8926" y="14.3149" width="1.25972" height="1.1452" fill="white"/>
<rect x="0.572266" y="14.3149" width="1.25972" height="1.1452" fill="white"/>
<rect x="72.8926" y="133.416" width="1.25972" height="1.1452" fill="white"/>
<rect x="0.572266" y="133.416" width="1.25972" height="1.1452" fill="white"/>
<path fill-rule="evenodd" clip-rule="evenodd" d="M29.775 6.87034C30.1545 6.87034 30.4621 6.5627 30.4621 6.18322C30.4621 5.80373 30.1545 5.49609 29.775 5.49609C29.3955 5.49609 29.0879 5.80373 29.0879 6.18322C29.0879 6.5627 29.3955 6.87034 29.775 6.87034Z" fill="#DEDEDE"/>
<path fill-rule="evenodd" clip-rule="evenodd" d="M45.694 7.32898C46.3265 7.32898 46.8392 6.81626 46.8392 6.18378C46.8392 5.5513 46.3265 5.03857 45.694 5.03857C45.0616 5.03857 44.5488 5.5513 44.5488 6.18378C44.5488 6.81626 45.0616 7.32898 45.694 7.32898Z" fill="#DEDEDE"/>
<path fill-rule="evenodd" clip-rule="evenodd" d="M33.5538 5.72607H41.2266C41.4796 5.72607 41.6847 5.93118 41.6847 6.18416C41.6847 6.43713 41.4796 6.64224 41.2266 6.64224H33.5538C33.3008 6.64224 33.0957 6.43713 33.0957 6.18416C33.0957 5.93118 33.3008 5.72607 33.5538 5.72607Z" fill="#DEDEDE"/>
<path fill-rule="evenodd" clip-rule="evenodd" d="M0 31.0341C0 30.908 0.122844 30.8057 0.27552 30.8057H0.687122V41.6851H0.27552C0.123354 41.6851 0 41.5826 0 41.4566V31.0341Z" fill="#DEDEDE"/>
<path fill-rule="evenodd" clip-rule="evenodd" d="M0 44.605C0 44.4788 0.122844 44.3765 0.27552 44.3765H0.687122V55.2559H0.27552C0.123354 55.2559 0 55.1534 0 55.0274V44.605Z" fill="#DEDEDE"/>
<path fill-rule="evenodd" clip-rule="evenodd" d="M0 20.3842C0 20.2578 0.122844 20.1553 0.27552 20.1553H0.687122V26.1103H0.27552C0.123354 26.1103 0 26.0082 0 25.8814V20.3842Z" fill="#DEDEDE"/>
<path fill-rule="evenodd" clip-rule="evenodd" d="M74.0371 34.2412H74.3807C74.5704 34.2412 74.7242 34.3689 74.7242 34.5272V51.7058C74.7242 51.8638 74.57 51.9919 74.3807 51.9919H74.0371V34.2412Z" fill="#DEDEDE"/>
<path fill-rule="evenodd" clip-rule="evenodd" d="M5.1543 10.9291C5.1543 7.4547 7.97406 4.63818 11.4528 4.63818H63.2734C66.752 4.63818 69.572 7.45449 69.572 10.9291V137.661C69.572 141.136 66.7522 143.952 63.2734 143.952H11.4528C7.97424 143.952 5.1543 141.136 5.1543 137.661V10.9291Z" fill="#EDEBEB"/>
<path fill-rule="evenodd" clip-rule="evenodd" d="M19.125 5.6676C19.125 7.94221 20.9735 9.78525 23.2537 9.78525H51.471C53.751 9.78525 55.5997 7.94171 55.5997 5.6676V4.63818H19.125V5.6676Z" fill="#F3F3F3"/>
</svg>
