<svg
  width="17"
  height="17"
  viewBox="0 0 17 17"
  fill="none"
  xmlns="http://www.w3.org/2000/svg"
>
<path
    d="M1.83329 6.6562H3.83329V14.6562H1.83329C1.65648 14.6562 1.48691 14.586 1.36189 14.4609C1.23686 14.3359 1.16663 14.1663 1.16663 13.9895V7.32287C1.16663 7.14606 1.23686 6.97649 1.36189 6.85146C1.48691 6.72644 1.65648 6.6562 1.83329 6.6562ZM5.36196 5.7942L9.62863 1.52754C9.68533 1.47066 9.76067 1.43618 9.84077 1.43042C9.92088 1.42467 10.0004 1.44802 10.0646 1.4962L10.6333 1.92287C10.7912 2.04143 10.9105 2.2041 10.9761 2.39037C11.0417 2.57664 11.0507 2.77817 11.002 2.96954L10.2333 5.98954H14.5C14.8536 5.98954 15.1927 6.13001 15.4428 6.38006C15.6928 6.63011 15.8333 6.96925 15.8333 7.32287V8.72554C15.8335 8.89978 15.7995 9.07236 15.7333 9.23354L13.67 14.2435C13.6196 14.3657 13.5341 14.4701 13.4243 14.5436C13.3145 14.6171 13.1854 14.6563 13.0533 14.6562H5.83329C5.65648 14.6562 5.48691 14.586 5.36189 14.4609C5.23686 14.3359 5.16663 14.1663 5.16663 13.9895V6.26553C5.16666 6.08874 5.23693 5.9192 5.36196 5.7942Z"
    fill="#0A459F"
  />
</svg>
