<svg
  width="16"
  height="17"
  viewBox="0 0 16 17"
  fill="none"
  xmlns="http://www.w3.org/2000/svg"
>
<rect y="0.5" width="16" height="16" rx="8" fill="#A5F4C6" />
<path
    d="M7.33333 1.83331L7.33333 5.83331L2 5.83331L2 1.83331L7.33333 1.83331ZM10.6667 11.1666L10.6667 15.1666L2 15.1666L2 11.1666L10.6667 11.1666ZM14 6.49998L14 10.5L2 10.5L2 6.49998L14 6.49998ZM6 3.16665L3.33333 3.16665L3.33333 4.49998L6 4.49998L6 3.16665ZM12.6667 7.83331L3.33333 7.83331L3.33333 9.16665L12.6667 9.16665L12.6667 7.83331ZM9.33333 12.5L3.33333 12.5L3.33333 13.8333L9.33333 13.8333L9.33333 12.5Z"
    fill="black"
  />
</svg>
