<svg width="16" height="17" viewBox="0 0 16 17" fill="none" xmlns="http://www.w3.org/2000/svg">
<g clip-path="url(#clip0)">
<path d="M9.33325 2.5V3.83333H2.66659V12.7567L3.84192 11.8333H13.3333V7.16667H14.6666V12.5C14.6666 12.6768 14.5963 12.8464 14.4713 12.9714C14.3463 13.0964 14.1767 13.1667 13.9999 13.1667H4.30325L1.33325 15.5V3.16667C1.33325 2.98986 1.40349 2.82029 1.52851 2.69526C1.65354 2.57024 1.82311 2.5 1.99992 2.5H9.33325ZM12.6666 2.5V0.5H13.9999V2.5H15.9999V3.83333H13.9999V5.83333H12.6666V3.83333H10.6666V2.5H12.6666Z" fill="#FCFCFC"/>
</g>
<defs>
<clipPath id="clip0">
<rect width="16" height="16" fill="white" transform="translate(0 0.5)"/>
</clipPath>
</defs>
</svg>
