<svg width="17" height="17" viewBox="0 0 17 17" fill="none" xmlns="http://www.w3.org/2000/svg">
<path d="M7.16671 2.65625H9.83337C11.2479 2.65625 12.6044 3.21815 13.6046 4.21835C14.6048 5.21854 15.1667 6.5751 15.1667 7.98958C15.1667 9.40407 14.6048 10.7606 13.6046 11.7608C12.6044 12.761 11.2479 13.3229 9.83337 13.3229V15.6562C6.50004 14.3229 1.83337 12.3229 1.83337 7.98958C1.83337 6.5751 2.39528 5.21854 3.39547 4.21835C4.39567 3.21815 5.75222 2.65625 7.16671 2.65625ZM8.50004 11.9896H9.83337C10.3587 11.9896 10.8788 11.8861 11.3641 11.6851C11.8494 11.4841 12.2904 11.1894 12.6618 10.818C13.0332 10.4466 13.3279 10.0056 13.5289 9.52032C13.7299 9.03502 13.8334 8.51487 13.8334 7.98958C13.8334 7.4643 13.7299 6.94415 13.5289 6.45885C13.3279 5.97355 13.0332 5.53259 12.6618 5.16116C12.2904 4.78972 11.8494 4.49508 11.3641 4.29407C10.8788 4.09305 10.3587 3.98958 9.83337 3.98958H7.16671C6.10584 3.98958 5.08843 4.41101 4.33828 5.16116C3.58813 5.9113 3.16671 6.92872 3.16671 7.98958C3.16671 10.3963 4.80804 11.9669 8.50004 13.6429V11.9896Z" fill="#808080"/>
</svg>
