<svg width="26" height="26" viewBox="0 0 26 26" fill="none" xmlns="http://www.w3.org/2000/svg">
<path d="M20.9528 17.423C20.9528 17.1152 20.8922 16.8105 20.7744 16.5262C20.6566 16.2419 20.4839 15.9836 20.2663 15.7661C20.0486 15.5485 19.7902 15.376 19.5059 15.2583C19.2215 15.1406 18.9168 15.0801 18.609 15.0803H6.62988C6.32206 15.0801 6.01723 15.1407 5.73281 15.2584C5.44839 15.3761 5.18996 15.5488 4.9723 15.7664C4.75463 15.9841 4.582 16.2425 4.46426 16.5269C4.34653 16.8114 4.286 17.1162 4.28613 17.424V18.3823C4.28613 18.9771 4.47155 19.5584 4.81738 20.0438C6.42467 22.298 9.05176 23.4146 12.6153 23.4146C16.1778 23.4146 18.808 22.299 20.4174 20.0448C20.7648 19.5596 20.952 18.9781 20.9528 18.3813V17.424V17.423Z" fill="white"/>
<path d="M17.8243 7.79382C17.8245 6.6969 17.4783 5.62794 16.8351 4.73936C16.192 3.85077 15.2847 3.18794 14.2426 2.84536C13.2006 2.50278 12.077 2.49795 11.032 2.83156C9.98704 3.16516 9.07408 3.82018 8.42331 4.7032C8.34783 4.67929 8.26915 4.667 8.18997 4.66674H5.58789C5.38069 4.66674 5.18198 4.74905 5.03546 4.89556C4.88895 5.04208 4.80664 5.24079 4.80664 5.44799V11.1751C4.80637 11.5514 4.88026 11.9242 5.0241 12.2719C5.16793 12.6197 5.37889 12.9358 5.64492 13.202C5.91095 13.4682 6.22683 13.6794 6.57451 13.8235C6.9222 13.9676 7.29487 14.0417 7.67122 14.0417H7.93164V14.0376H7.94206C8.11854 14.0378 8.29219 13.9932 8.44664 13.9078C8.6011 13.8224 8.73127 13.6991 8.8249 13.5495C8.91852 13.3999 8.97253 13.2289 8.98181 13.0527C8.9911 12.8765 8.95537 12.7008 8.87798 12.5421C8.8006 12.3835 8.6841 12.2472 8.53948 12.1461C8.39486 12.0449 8.22687 11.9823 8.05133 11.964C7.8758 11.9457 7.6985 11.9724 7.53614 12.0416C7.37378 12.1108 7.23171 12.2202 7.12331 12.3595C6.89773 12.2548 6.70683 12.0878 6.57318 11.8781C6.43954 11.6684 6.36873 11.4248 6.36914 11.1761V10.9167H7.14831C7.54414 10.9167 7.91185 10.7897 8.21081 10.5751C8.8133 11.5302 9.70992 12.2637 10.7656 12.665C11.8212 13.0662 12.9786 13.1134 14.0635 12.7996C15.1483 12.4857 16.1017 11.8278 16.7801 10.9249C17.4584 10.022 17.8249 8.92314 17.8243 7.79382ZM7.40768 7.68341C7.40616 7.75701 7.40616 7.83064 7.40768 7.90424V9.09278C7.40768 9.16185 7.38025 9.22809 7.33141 9.27693C7.28257 9.32576 7.21633 9.3532 7.14727 9.3532H6.36914V6.23028H7.40872V7.68341H7.40768Z" fill="white"/>
</svg>
