<svg
  width="16"
  height="17"
  viewBox="0 0 16 17"
  fill="none"
  xmlns="http://www.w3.org/2000/svg"
>
<rect y="0.5" width="16" height="16" rx="8" fill="#A6E3F7" />
<g clip-path="url(#clip0)">
<path
      d="M9.73317 5.83323H13.9998C14.3535 5.83323 14.6926 5.9737 14.9426 6.22375C15.1927 6.4738 15.3332 6.81294 15.3332 7.16656V8.56923C15.3334 8.74347 15.2994 8.91606 15.2332 9.07723L13.1698 14.0872C13.1195 14.2094 13.034 14.3138 12.9242 14.3873C12.8144 14.4608 12.6853 14.5 12.5532 14.4999H1.33317C1.15636 14.4999 0.98679 14.4297 0.861766 14.3046C0.736742 14.1796 0.666504 14.01 0.666504 13.8332V7.16656C0.666504 6.98975 0.736742 6.82018 0.861766 6.69516C0.98679 6.57013 1.15636 6.4999 1.33317 6.4999H3.6545C3.76123 6.49992 3.86641 6.47432 3.96119 6.42525C4.05597 6.37618 4.13759 6.30507 4.19917 6.2179L7.8345 1.06656C7.88046 1.00144 7.94823 0.954935 8.02553 0.935489C8.10283 0.916042 8.18453 0.924937 8.25584 0.960562L9.46517 1.56523C9.80551 1.73534 10.0774 2.01677 10.2357 2.36277C10.3939 2.70877 10.429 3.09851 10.3352 3.46723L9.73317 5.83323ZM4.6665 7.55856V13.1666H12.1065L13.9998 8.56923V7.16656H9.73317C9.5301 7.16653 9.32973 7.12012 9.14732 7.03087C8.96492 6.94161 8.80532 6.81188 8.68069 6.65155C8.55606 6.49123 8.46969 6.30456 8.42818 6.10578C8.38667 5.907 8.39111 5.70136 8.44117 5.50456L9.04317 3.13923C9.06201 3.06545 9.05502 2.98744 9.02337 2.91818C8.99171 2.84892 8.93729 2.79259 8.86917 2.75856L8.4285 2.53856L5.2885 6.98656C5.12184 7.22256 4.9085 7.4159 4.6665 7.55856ZM3.33317 7.83323H1.99984V13.1666H3.33317V7.83323Z"
      fill="black"
    />
</g>
<defs>
<clipPath id="clip0">
<rect width="16" height="16" fill="white" transform="translate(0 0.5)" />
</clipPath>
</defs>
</svg>
