<svg
  width="25"
  height="26"
  viewBox="0 0 25 26"
  fill="none"
  xmlns="http://www.w3.org/2000/svg"
>
<path
    d="M12.4997 2.12878C6.75592 2.12878 2.08301 6.8017 2.08301 12.5455C2.08301 18.2892 6.75592 22.9621 12.4997 22.9621C18.2434 22.9621 22.9163 18.2892 22.9163 12.5455C22.9163 6.8017 18.2434 2.12878 12.4997 2.12878ZM12.4997 20.8788C7.90488 20.8788 4.16634 17.1402 4.16634 12.5455C4.16634 7.95066 7.90488 4.21212 12.4997 4.21212C17.0945 4.21212 20.833 7.95066 20.833 12.5455C20.833 17.1402 17.0945 20.8788 12.4997 20.8788Z"
    fill="white"
  />
<path
    d="M13.5413 7.33716H11.458V13.5872H17.708V11.5038H13.5413V7.33716Z"
    fill="white"
  />
</svg>
