<svg
  width="30"
  height="24"
  viewBox="0 0 30 24"
  fill="none"
  xmlns="http://www.w3.org/2000/svg"
>
<path
    d="M25.2 10.6219C25.3922 10.1203 25.5 9.57187 25.5 9C25.5 6.51562 23.4844 4.5 21 4.5C20.0766 4.5 19.2141 4.78125 18.5016 5.25937C17.2031 3.00937 14.7797 1.5 12 1.5C7.85625 1.5 4.5 4.85625 4.5 9C4.5 9.12656 4.50469 9.25313 4.50937 9.37969C1.88437 10.3031 0 12.8062 0 15.75C0 19.4766 3.02344 22.5 6.75 22.5H24C27.3141 22.5 30 19.8141 30 16.5C30 13.5984 27.9375 11.175 25.2 10.6219ZM18.4406 13.5H15.375V18.75C15.375 19.1625 15.0375 19.5 14.625 19.5H12.375C11.9625 19.5 11.625 19.1625 11.625 18.75V13.5H8.55938C7.88906 13.5 7.55625 12.6938 8.02969 12.2203L12.9703 7.27969C13.2609 6.98906 13.7391 6.98906 14.0297 7.27969L18.9703 12.2203C19.4438 12.6938 19.1062 13.5 18.4406 13.5Z"
    fill="#0A459F"
  />
</svg>
