<svg width="24" height="26" viewBox="0 0 24 26" fill="none" xmlns="http://www.w3.org/2000/svg">
<g clip-path="url(#clip0)">
<path d="M12 2.63623C10.3636 2.63623 9.08523 3.2385 8.16477 4.44305C7.24432 5.64759 6.78409 7.18737 6.78409 9.06237C6.77273 11.3919 7.52273 13.2385 9.03409 14.6021C9.22727 14.784 9.29545 15.0169 9.23864 15.301L8.84659 16.1192C8.72159 16.3919 8.53693 16.605 8.29261 16.7584C8.0483 16.9118 7.53409 17.1305 6.75 17.4146C6.71591 17.426 5.99716 17.659 4.59375 18.1135C3.19034 18.568 2.44318 18.818 2.35227 18.8635C1.39773 19.2612 0.772727 19.676 0.477273 20.1078C0.159091 20.8237 0 22.6362 0 25.5453H24C24 22.6362 23.8409 20.8237 23.5227 20.1078C23.2273 19.676 22.6023 19.2612 21.6477 18.8635C21.5568 18.818 20.8097 18.568 19.4062 18.1135C18.0028 17.659 17.2841 17.426 17.25 17.4146C16.4659 17.1305 15.9517 16.9118 15.7074 16.7584C15.4631 16.605 15.2784 16.3919 15.1534 16.1192L14.7614 15.301C14.7045 15.0169 14.7727 14.784 14.9659 14.6021C16.4773 13.2385 17.2273 11.3919 17.2159 9.06237C17.2159 7.18737 16.7557 5.64759 15.8352 4.44305C14.9148 3.2385 13.6364 2.63623 12 2.63623Z" fill="white"/>
</g>
<defs>
<clipPath id="clip0">
<rect width="24" height="25.0909" fill="white" transform="translate(0 0.454529)"/>
</clipPath>
</defs>
</svg>

